<svg xmlns="http://www.w3.org/2000/svg" width="106" height="26" fill="none"><path fill="#fff" d="M0 0h106v26H0z"/><path fill="#3AD" d="M26 0h80v26H26V0Z"/><path fill="#030106" d="M0 0h26v26H0V0Z"/><path fill="#fff" d="M58.308 17.144c-.568 0-1.08-.088-1.536-.264a3.135 3.135 0 0 1-1.164-.804 3.77 3.77 0 0 1-.744-1.332c-.176-.536-.264-1.16-.264-1.872 0-.704.088-1.328.264-1.872.176-.552.424-1.012.744-1.38.32-.376.708-.66 1.164-.852a3.923 3.923 0 0 1 1.536-.288c.776 0 1.416.16 1.92.48.504.312.908.808 1.212 1.488l-1.572.816a1.806 1.806 0 0 0-.528-.84c-.232-.216-.576-.324-1.032-.324-.536 0-.968.176-1.296.528-.32.344-.48.848-.48 1.512v1.344c0 .664.16 1.172.48 1.524.328.344.76.516 1.296.516.448 0 .804-.12 1.068-.36.272-.248.472-.544.6-.888l1.488.864c-.312.64-.724 1.136-1.236 1.488-.504.344-1.144.516-1.92.516ZM65.452 17.144c-.736 0-1.36-.124-1.872-.372a4.363 4.363 0 0 1-1.308-.984l1.2-1.212c.568.64 1.268.96 2.1.96.448 0 .78-.092.996-.276a.914.914 0 0 0 .324-.732.863.863 0 0 0-.192-.576c-.128-.16-.388-.268-.78-.324l-.828-.108c-.888-.112-1.54-.38-1.956-.804-.408-.424-.612-.988-.612-1.692 0-.376.072-.72.216-1.032.144-.312.348-.58.612-.804.272-.224.6-.396.984-.516a4.283 4.283 0 0 1 1.332-.192c.632 0 1.188.1 1.668.3.48.2.892.492 1.236.876L67.36 10.88a2.33 2.33 0 0 0-.732-.564c-.28-.152-.636-.228-1.068-.228-.408 0-.712.072-.912.216-.2.144-.3.344-.3.6 0 .288.076.496.228.624.16.128.416.22.768.276l.828.132c.864.136 1.504.404 1.92.804.416.392.624.952.624 1.68 0 .4-.072.768-.216 1.104a2.336 2.336 0 0 1-.636.864c-.272.24-.612.428-1.02.564a4.647 4.647 0 0 1-1.392.192ZM72.777 17.144c-.736 0-1.36-.124-1.872-.372a4.363 4.363 0 0 1-1.308-.984l1.2-1.212c.568.64 1.268.96 2.1.96.448 0 .78-.092.996-.276a.914.914 0 0 0 .324-.732.863.863 0 0 0-.192-.576c-.128-.16-.388-.268-.78-.324l-.828-.108c-.888-.112-1.54-.38-1.956-.804-.408-.424-.612-.988-.612-1.692 0-.376.072-.72.216-1.032.144-.312.348-.58.612-.804.272-.224.6-.396.984-.516a4.283 4.283 0 0 1 1.332-.192c.632 0 1.188.1 1.668.3.48.2.892.492 1.236.876l-1.212 1.224a2.33 2.33 0 0 0-.732-.564c-.28-.152-.636-.228-1.068-.228-.408 0-.712.072-.912.216-.2.144-.3.344-.3.6 0 .288.076.496.228.624.16.128.416.22.768.276l.828.132c.864.136 1.504.404 1.92.804.416.392.624.952.624 1.68 0 .4-.072.768-.216 1.104a2.336 2.336 0 0 1-.636.864c-.272.24-.612.428-1.02.564a4.647 4.647 0 0 1-1.392.192Z"/><path fill="#3AD" fill-rule="evenodd" d="M17.831 9.4h-7.665l.183 1.8h7.3c-.107 1.577-.43 4.917-.55 6.438L13 18.805v.004l-.008.004-4.103-1.462-.281-3.452h2.01l.143 1.857 2.234.843H13l2.231-.81.23-2.79H8.516c-.034-.36-.465-5.047-.54-5.4H18.01c-.056.594-.114 1.204-.18 1.8ZM5 4l1.456 16.333L12.991 22l6.551-1.7L21 4H5Z" clip-rule="evenodd"/></svg>