<svg width="106" height="26" viewBox="0 0 106 26" fill="none" xmlns="http://www.w3.org/2000/svg">
<rect width="106" height="26" fill="white"/>
<path d="M26 0H106V26H26V0Z" fill="#33AADD"/>
<path d="M0 0H26V26H0V0Z" fill="#030106"/>
<path d="M58.308 17.144C57.74 17.144 57.228 17.056 56.772 16.88C56.316 16.696 55.928 16.428 55.608 16.076C55.288 15.716 55.04 15.272 54.864 14.744C54.688 14.208 54.6 13.584 54.6 12.872C54.6 12.168 54.688 11.544 54.864 11C55.04 10.448 55.288 9.98798 55.608 9.61998C55.928 9.24398 56.316 8.95998 56.772 8.76798C57.228 8.57598 57.74 8.47998 58.308 8.47998C59.084 8.47998 59.724 8.63998 60.228 8.95998C60.732 9.27198 61.136 9.76798 61.44 10.448L59.868 11.264C59.756 10.912 59.58 10.632 59.34 10.424C59.108 10.208 58.764 10.1 58.308 10.1C57.772 10.1 57.34 10.276 57.012 10.628C56.692 10.972 56.532 11.476 56.532 12.14V13.484C56.532 14.148 56.692 14.656 57.012 15.008C57.34 15.352 57.772 15.524 58.308 15.524C58.756 15.524 59.112 15.404 59.376 15.164C59.648 14.916 59.848 14.62 59.976 14.276L61.464 15.14C61.152 15.78 60.74 16.276 60.228 16.628C59.724 16.972 59.084 17.144 58.308 17.144Z" fill="white"/>
<path d="M65.4524 17.144C64.7164 17.144 64.0924 17.02 63.5804 16.772C63.0684 16.516 62.6324 16.188 62.2724 15.788L63.4724 14.576C64.0404 15.216 64.7404 15.536 65.5724 15.536C66.0204 15.536 66.3524 15.444 66.5684 15.26C66.7844 15.076 66.8924 14.832 66.8924 14.528C66.8924 14.296 66.8284 14.104 66.7004 13.952C66.5724 13.792 66.3124 13.684 65.9204 13.628L65.0924 13.52C64.2044 13.408 63.5524 13.14 63.1364 12.716C62.7284 12.292 62.5244 11.728 62.5244 11.024C62.5244 10.648 62.5964 10.304 62.7404 9.99198C62.8844 9.67998 63.0884 9.41198 63.3524 9.18798C63.6244 8.96398 63.9524 8.79198 64.3364 8.67198C64.7284 8.54398 65.1724 8.47998 65.6684 8.47998C66.3004 8.47998 66.8564 8.57998 67.3364 8.77998C67.8164 8.97998 68.2284 9.27198 68.5724 9.65598L67.3604 10.88C67.1604 10.648 66.9164 10.46 66.6284 10.316C66.3484 10.164 65.9924 10.088 65.5604 10.088C65.1524 10.088 64.8484 10.16 64.6484 10.304C64.4484 10.448 64.3484 10.648 64.3484 10.904C64.3484 11.192 64.4244 11.4 64.5764 11.528C64.7364 11.656 64.9924 11.748 65.3444 11.804L66.1724 11.936C67.0364 12.072 67.6764 12.34 68.0924 12.74C68.5084 13.132 68.7164 13.692 68.7164 14.42C68.7164 14.82 68.6444 15.188 68.5004 15.524C68.3564 15.86 68.1444 16.148 67.8644 16.388C67.5924 16.628 67.2524 16.816 66.8444 16.952C66.4364 17.08 65.9724 17.144 65.4524 17.144Z" fill="white"/>
<path d="M72.7766 17.144C72.0406 17.144 71.4166 17.02 70.9046 16.772C70.3926 16.516 69.9566 16.188 69.5966 15.788L70.7966 14.576C71.3646 15.216 72.0646 15.536 72.8966 15.536C73.3446 15.536 73.6766 15.444 73.8926 15.26C74.1086 15.076 74.2166 14.832 74.2166 14.528C74.2166 14.296 74.1526 14.104 74.0246 13.952C73.8966 13.792 73.6366 13.684 73.2446 13.628L72.4166 13.52C71.5286 13.408 70.8766 13.14 70.4606 12.716C70.0526 12.292 69.8486 11.728 69.8486 11.024C69.8486 10.648 69.9206 10.304 70.0646 9.99198C70.2086 9.67998 70.4126 9.41198 70.6766 9.18798C70.9486 8.96398 71.2766 8.79198 71.6606 8.67198C72.0526 8.54398 72.4966 8.47998 72.9926 8.47998C73.6246 8.47998 74.1806 8.57998 74.6606 8.77998C75.1406 8.97998 75.5526 9.27198 75.8966 9.65598L74.6846 10.88C74.4846 10.648 74.2406 10.46 73.9526 10.316C73.6726 10.164 73.3166 10.088 72.8846 10.088C72.4766 10.088 72.1726 10.16 71.9726 10.304C71.7726 10.448 71.6726 10.648 71.6726 10.904C71.6726 11.192 71.7486 11.4 71.9006 11.528C72.0606 11.656 72.3166 11.748 72.6686 11.804L73.4966 11.936C74.3606 12.072 75.0006 12.34 75.4166 12.74C75.8326 13.132 76.0406 13.692 76.0406 14.42C76.0406 14.82 75.9686 15.188 75.8246 15.524C75.6806 15.86 75.4686 16.148 75.1886 16.388C74.9166 16.628 74.5766 16.816 74.1686 16.952C73.7606 17.08 73.2966 17.144 72.7766 17.144Z" fill="white"/>
<path fill-rule="evenodd" clip-rule="evenodd" d="M17.8312 9.4H17.8248H10.1662L10.3494 11.2H17.6489C17.542 12.7768 17.2183 16.1174 17.0995 17.6375L12.9995 18.8061V18.8096L12.9905 18.814L8.8878 17.3523L8.60673 13.9H10.6177L10.7601 15.7567L12.9941 16.6H12.9995L15.23 15.7901L15.4593 13H8.51697C8.48343 12.6391 8.05185 7.9528 7.9766 7.6H18.0107C17.9545 8.194 17.8974 8.8042 17.8312 9.4ZM5 4L6.45611 20.3332L12.9905 22L19.5421 20.2998L21 4H5Z" fill="#33AADD"/>
</svg>
