<svg xmlns="http://www.w3.org/2000/svg" width="106" height="26" fill="none"><path fill="#fff" d="M0 0h106v26H0z"/><path fill="#A45EE5" d="M26 0h80v26H26V0Z"/><path fill="#030106" d="M0 0h26v26H0V0Z"/><path fill="#fff" d="M48.924 17V8.624h5.556v1.62h-3.732v1.716h3.18v1.608h-3.18V17h-1.824ZM56.736 10.028c-.36 0-.624-.08-.792-.24a.885.885 0 0 1-.24-.636v-.264c0-.256.08-.464.24-.624.167-.168.431-.252.791-.252.36 0 .62.084.78.252.169.16.252.368.252.624v.264a.862.862 0 0 1-.252.636c-.16.16-.42.24-.78.24Zm-.889.672h1.776V17h-1.776v-6.3ZM65.113 17.456c0 .336-.06.632-.18.888-.112.256-.3.472-.564.648-.264.184-.616.32-1.056.408-.432.096-.968.144-1.608.144a7.684 7.684 0 0 1-1.392-.108c-.376-.064-.684-.16-.924-.288a1.261 1.261 0 0 1-.516-.456 1.18 1.18 0 0 1-.156-.612c0-.352.104-.628.312-.828.208-.2.496-.324.864-.372v-.132c-.304-.056-.532-.184-.684-.384a1.188 1.188 0 0 1-.228-.72c0-.168.032-.312.096-.432.072-.128.16-.236.264-.324a1.32 1.32 0 0 1 .384-.228c.144-.056.288-.1.432-.132v-.048c-.384-.176-.668-.416-.852-.72a2.086 2.086 0 0 1-.276-1.08c0-.64.22-1.152.66-1.536.448-.392 1.128-.588 2.04-.588.416 0 .772.04 1.068.12v-.24c0-.336.08-.576.24-.72.168-.152.404-.228.708-.228h.996v1.32H63.35v.072c.368.176.64.42.816.732.176.304.264.66.264 1.068 0 .632-.224 1.14-.672 1.524-.44.376-1.116.564-2.028.564-.408 0-.78-.044-1.116-.132a.57.57 0 0 0-.276.504c0 .152.056.272.168.36.12.08.316.12.588.12h1.824c.768 0 1.324.16 1.668.48.352.32.528.772.528 1.356Zm-1.668.24a.473.473 0 0 0-.216-.42c-.144-.096-.396-.144-.756-.144h-2.16a.817.817 0 0 0-.18.264 1.019 1.019 0 0 0-.048.3c0 .232.1.4.3.504.2.112.54.168 1.02.168h.72c.48 0 .82-.056 1.02-.168.2-.104.3-.272.3-.504Zm-1.716-4.092c.352 0 .612-.072.78-.216.176-.152.264-.368.264-.648v-.144c0-.28-.088-.492-.264-.636-.168-.152-.428-.228-.78-.228-.352 0-.616.076-.792.228-.168.144-.252.356-.252.636v.144c0 .28.084.496.252.648.176.144.44.216.792.216ZM65.902 17v-6.3h1.776v1.068h.072c.112-.336.304-.62.576-.852.272-.24.644-.36 1.116-.36.432 0 .8.108 1.104.324.304.216.524.532.66.948h.036a1.687 1.687 0 0 1 .684-.9c.168-.112.356-.2.564-.264a2.04 2.04 0 0 1 .672-.108c.608 0 1.072.216 1.392.648.328.432.492 1.048.492 1.848V17H73.27v-3.804c0-.8-.288-1.2-.864-1.2-.264 0-.504.076-.72.228-.216.152-.324.384-.324.696V17h-1.776v-3.804c0-.8-.288-1.2-.864-1.2-.128 0-.256.02-.384.06a.948.948 0 0 0-.336.168.993.993 0 0 0-.24.3.876.876 0 0 0-.084.396V17h-1.776ZM81.28 17c-.32 0-.587-.1-.803-.3-.208-.2-.34-.468-.396-.804h-.072a1.48 1.48 0 0 1-.636.936c-.328.208-.732.312-1.212.312-.632 0-1.116-.168-1.452-.504-.336-.336-.504-.78-.504-1.332 0-.664.24-1.156.72-1.476.488-.328 1.148-.492 1.98-.492h.996v-.396c0-.304-.08-.544-.24-.72-.16-.184-.428-.276-.804-.276-.352 0-.632.076-.84.228-.208.152-.38.324-.516.516l-1.056-.936c.256-.376.576-.668.96-.876.392-.216.92-.324 1.584-.324.896 0 1.568.196 2.016.588.448.392.672.964.672 1.716v2.76h.588V17h-.984Zm-2.46-1.092c.297 0 .549-.064.757-.192.216-.128.324-.336.324-.624v-.744h-.864c-.696 0-1.044.236-1.044.708v.18c0 .232.072.404.216.516.144.104.348.156.612.156Z"/><path fill="#A45EE5" fill-rule="evenodd" d="M10.5 5.5a2 2 0 1 0 0 4h2v-4h-2Zm3 0v4h2a2 2 0 1 0 0-4h-2Zm3.659 4.5A3 3 0 0 0 15.5 4.5h-5A3 3 0 0 0 8.841 10 2.997 2.997 0 0 0 7.5 12.5c0 1.043.533 1.963 1.341 2.5a3 3 0 1 0 4.659 2.5v-2.764A3 3 0 1 0 17.159 10Zm-4.659.5h-2a2 2 0 1 0 0 4h2v-4Zm0 5h-2a2 2 0 1 0 2 2v-2Zm3-5a2 2 0 1 1 0 4 2 2 0 0 1 0-4Z" clip-rule="evenodd"/></svg>