<svg width="106" height="26" viewBox="0 0 106 26" fill="none" xmlns="http://www.w3.org/2000/svg">
<rect width="106" height="26" fill="white"/>
<path d="M26 0H106V26H26V0Z" fill="#A259FF"/>
<path d="M0 0H26V26H0V0Z" fill="#030106"/>
<path d="M48.924 17V8.62396H54.48V10.244H50.748V11.96H53.928V13.568H50.748V17H48.924Z" fill="white"/>
<path d="M56.7355 10.028C56.3755 10.028 56.1115 9.94796 55.9435 9.78796C55.7835 9.61996 55.7035 9.40796 55.7035 9.15196V8.88796C55.7035 8.63196 55.7835 8.42396 55.9435 8.26396C56.1115 8.09596 56.3755 8.01196 56.7355 8.01196C57.0955 8.01196 57.3555 8.09596 57.5155 8.26396C57.6835 8.42396 57.7675 8.63196 57.7675 8.88796V9.15196C57.7675 9.40796 57.6835 9.61996 57.5155 9.78796C57.3555 9.94796 57.0955 10.028 56.7355 10.028ZM55.8475 10.7H57.6235V17H55.8475V10.7Z" fill="white"/>
<path d="M65.1131 17.456C65.1131 17.792 65.0531 18.088 64.9331 18.344C64.8211 18.6 64.6331 18.816 64.3691 18.992C64.1051 19.176 63.7531 19.312 63.3131 19.4C62.8811 19.496 62.3451 19.544 61.7051 19.544C61.1611 19.544 60.6971 19.508 60.3131 19.436C59.9371 19.372 59.6291 19.276 59.3891 19.148C59.1571 19.028 58.9851 18.876 58.8731 18.692C58.7691 18.516 58.7171 18.312 58.7171 18.08C58.7171 17.728 58.8211 17.452 59.0291 17.252C59.2371 17.052 59.5251 16.928 59.8931 16.88V16.748C59.5891 16.692 59.3611 16.564 59.2091 16.364C59.0571 16.156 58.9811 15.916 58.9811 15.644C58.9811 15.476 59.0131 15.332 59.0771 15.212C59.1491 15.084 59.2371 14.976 59.3411 14.888C59.4531 14.792 59.5811 14.716 59.7251 14.66C59.8691 14.604 60.0131 14.56 60.1571 14.528V14.48C59.7731 14.304 59.4891 14.064 59.3051 13.76C59.1211 13.448 59.0291 13.088 59.0291 12.68C59.0291 12.04 59.2491 11.528 59.6891 11.144C60.1371 10.752 60.8171 10.556 61.7291 10.556C62.1451 10.556 62.5011 10.596 62.7971 10.676V10.436C62.7971 10.1 62.8771 9.85996 63.0371 9.71596C63.2051 9.56396 63.4411 9.48796 63.7451 9.48796H64.7411V10.808H63.3491V10.88C63.7171 11.056 63.9891 11.3 64.1651 11.612C64.3411 11.916 64.4291 12.272 64.4291 12.68C64.4291 13.312 64.2051 13.82 63.7571 14.204C63.3171 14.58 62.6411 14.768 61.7291 14.768C61.3211 14.768 60.9491 14.724 60.6131 14.636C60.4291 14.756 60.3371 14.924 60.3371 15.14C60.3371 15.292 60.3931 15.412 60.5051 15.5C60.6251 15.58 60.8211 15.62 61.0931 15.62H62.9171C63.6851 15.62 64.2411 15.78 64.5851 16.1C64.9371 16.42 65.1131 16.872 65.1131 17.456ZM63.4451 17.696C63.4451 17.512 63.3731 17.372 63.2291 17.276C63.0851 17.18 62.8331 17.132 62.4731 17.132H60.3131C60.2331 17.212 60.1731 17.3 60.1331 17.396C60.1011 17.5 60.0851 17.6 60.0851 17.696C60.0851 17.928 60.1851 18.096 60.3851 18.2C60.5851 18.312 60.9251 18.368 61.4051 18.368H62.1251C62.6051 18.368 62.9451 18.312 63.1451 18.2C63.3451 18.096 63.4451 17.928 63.4451 17.696ZM61.7291 13.604C62.0811 13.604 62.3411 13.532 62.5091 13.388C62.6851 13.236 62.7731 13.02 62.7731 12.74V12.596C62.7731 12.316 62.6851 12.104 62.5091 11.96C62.3411 11.808 62.0811 11.732 61.7291 11.732C61.3771 11.732 61.1131 11.808 60.9371 11.96C60.7691 12.104 60.6851 12.316 60.6851 12.596V12.74C60.6851 13.02 60.7691 13.236 60.9371 13.388C61.1131 13.532 61.3771 13.604 61.7291 13.604Z" fill="white"/>
<path d="M65.9022 17V10.7H67.6782V11.768H67.7502C67.8622 11.432 68.0542 11.148 68.3262 10.916C68.5982 10.676 68.9702 10.556 69.4422 10.556C69.8742 10.556 70.2422 10.664 70.5462 10.88C70.8502 11.096 71.0702 11.412 71.2062 11.828H71.2422C71.2982 11.652 71.3822 11.488 71.4942 11.336C71.6142 11.176 71.7582 11.04 71.9262 10.928C72.0942 10.816 72.2822 10.728 72.4902 10.664C72.6982 10.592 72.9222 10.556 73.1622 10.556C73.7702 10.556 74.2342 10.772 74.5542 11.204C74.8822 11.636 75.0462 12.252 75.0462 13.052V17H73.2702V13.196C73.2702 12.396 72.9822 11.996 72.4062 11.996C72.1422 11.996 71.9022 12.072 71.6862 12.224C71.4702 12.376 71.3622 12.608 71.3622 12.92V17H69.5862V13.196C69.5862 12.396 69.2982 11.996 68.7222 11.996C68.5942 11.996 68.4662 12.016 68.3382 12.056C68.2182 12.088 68.1062 12.144 68.0022 12.224C67.9062 12.304 67.8262 12.404 67.7622 12.524C67.7062 12.636 67.6782 12.768 67.6782 12.92V17H65.9022Z" fill="white"/>
<path d="M81.2809 17C80.9609 17 80.6929 16.9 80.4769 16.7C80.2689 16.5 80.1369 16.232 80.0809 15.896H80.0089C79.9129 16.304 79.7009 16.616 79.3729 16.832C79.0449 17.04 78.6409 17.144 78.1609 17.144C77.5289 17.144 77.0449 16.976 76.7089 16.64C76.3729 16.304 76.2049 15.86 76.2049 15.308C76.2049 14.644 76.4449 14.152 76.9249 13.832C77.4129 13.504 78.0729 13.34 78.9049 13.34H79.9009V12.944C79.9009 12.64 79.8209 12.4 79.6609 12.224C79.5009 12.04 79.2329 11.948 78.8569 11.948C78.5049 11.948 78.2249 12.024 78.0169 12.176C77.8089 12.328 77.6369 12.5 77.5009 12.692L76.4449 11.756C76.7009 11.38 77.0209 11.088 77.4049 10.88C77.7969 10.664 78.3249 10.556 78.9889 10.556C79.8849 10.556 80.5569 10.752 81.0049 11.144C81.4529 11.536 81.6769 12.108 81.6769 12.86V15.62H82.2649V17H81.2809ZM78.8209 15.908C79.1169 15.908 79.3689 15.844 79.5769 15.716C79.7929 15.588 79.9009 15.38 79.9009 15.092V14.348H79.0369C78.3409 14.348 77.9929 14.584 77.9929 15.056V15.236C77.9929 15.468 78.0649 15.64 78.2089 15.752C78.3529 15.856 78.5569 15.908 78.8209 15.908Z" fill="white"/>
<path fill-rule="evenodd" clip-rule="evenodd" d="M10.5 5.5C9.39543 5.5 8.5 6.39543 8.5 7.5C8.5 8.60457 9.39543 9.5 10.5 9.5H12.5V5.5H10.5ZM13.5 5.5V9.5H15.5C16.6046 9.5 17.5 8.60457 17.5 7.5C17.5 6.39543 16.6046 5.5 15.5 5.5H13.5ZM17.1589 10C17.9673 9.46253 18.5 8.54348 18.5 7.5C18.5 5.84315 17.1569 4.5 15.5 4.5H10.5C8.84315 4.5 7.5 5.84315 7.5 7.5C7.5 8.54348 8.03275 9.46253 8.8411 9.99999C8.03275 10.5374 7.5 11.4565 7.5 12.5C7.5 13.5435 8.03275 14.4625 8.84109 15C8.03275 15.5375 7.5 16.4565 7.5 17.5C7.5 19.1569 8.84315 20.5 10.5 20.5C12.1569 20.5 13.5 19.1569 13.5 17.5V14.7361C14.0308 15.2112 14.7316 15.5 15.5 15.5C17.1569 15.5 18.5 14.1569 18.5 12.5C18.5 11.4565 17.9673 10.5374 17.1589 10ZM12.5 10.5H10.5C9.39543 10.5 8.5 11.3954 8.5 12.5C8.5 13.6046 9.39543 14.5 10.5 14.5H12.5V10.5ZM12.5 15.5H10.5C9.39543 15.5 8.5 16.3954 8.5 17.5C8.5 18.6046 9.39543 19.5 10.5 19.5C11.6046 19.5 12.5 18.6046 12.5 17.5V15.5ZM15.5 10.5C16.6046 10.5 17.5 11.3954 17.5 12.5C17.5 13.6046 16.6046 14.5 15.5 14.5C14.3954 14.5 13.5 13.6046 13.5 12.5C13.5 11.3954 14.3954 10.5 15.5 10.5Z" fill="#A259FF"/>
</svg>
