<svg width="106" height="26" viewBox="0 0 106 26" fill="none" xmlns="http://www.w3.org/2000/svg">
<rect width="106" height="26" fill="white"/>
<path d="M26 0H106V26H26V0Z" fill="#F16529"/>
<path d="M0 0H26V26H0V0Z" fill="#030106"/>
<path d="M55.94 13.568H52.748V17H50.924V8.62402H52.748V11.96H55.94V8.62402H57.764V17H55.94V13.568Z" fill="white"/>
<path d="M63.0996 10.244V17H61.2756V10.244H59.0076V8.62402H65.3676V10.244H63.0996Z" fill="white"/>
<path d="M72.8794 11.504H72.8434L72.2314 12.728L70.5994 15.692L69.0034 12.74L68.3674 11.42H68.3314V17H66.6154V8.62402H68.5474L70.5994 12.548H70.6234L72.6514 8.62402H74.5954V17H72.8794V11.504Z" fill="white"/>
<path d="M76.4474 17V8.62402H78.2715V15.38H81.4634V17H76.4474Z" fill="white"/>
<path d="M21 4L19.4998 20.2499L12.9999 22L6.49992 20.2499L5 4H21ZM17.9769 7.30416H12.994H7.92287L8.1654 9.26648H12.994H13.2653L12.994 9.37938L8.34187 11.317L8.49616 13.2351L12.994 13.2497L15.4048 13.2573L15.2505 15.8149L12.994 16.4502V16.4482L12.9755 16.4533L10.7964 15.9032L10.6641 14.3156H10.6569H8.63561H8.6285L8.89307 17.3804L12.9941 18.5932V18.591L13.0015 18.5932L17.0805 17.4025L17.6096 11.317H12.9941H12.9827L12.9941 11.312L17.7787 9.26648L17.9769 7.30416Z" fill="#F16529"/>
</svg>
