<svg xmlns="http://www.w3.org/2000/svg" width="106" height="26" fill="none"><path fill="#fff" d="M0 0h106v26H0z"/><path fill="#F16529" d="M26 0h80v26H26V0Z"/><path fill="#030106" d="M0 0h26v26H0V0Z"/><path fill="#fff" d="M55.94 13.568h-3.192V17h-1.824V8.624h1.824v3.336h3.192V8.624h1.824V17H55.94v-3.432ZM63.1 10.244V17h-1.824v-6.756h-2.268v-1.62h6.36v1.62H63.1ZM72.88 11.504h-.037l-.612 1.224-1.632 2.964-1.596-2.952-.636-1.32h-.036V17h-1.716V8.624h1.932l2.052 3.924h.024l2.028-3.924h1.944V17H72.88v-5.496ZM76.447 17V8.624h1.825v6.756h3.191V17h-5.016Z"/><path fill="#F16529" d="m21 4-1.5 16.25L13 22l-6.5-1.75L5 4h16Zm-3.023 3.304H7.923l.242 1.962h5.1l-.271.113-4.652 1.938.154 1.918 4.498.015 2.41.007-.153 2.558-2.257.635v-.002l-.018.005-2.18-.55-.132-1.587H8.63l.264 3.064 4.101 1.213v-.002l.008.002 4.079-1.19.529-6.086h-4.627l.011-.005 4.785-2.046.198-1.962Z"/></svg>