<svg width="106" height="26" viewBox="0 0 106 26" fill="none" xmlns="http://www.w3.org/2000/svg">
<rect width="106" height="26" fill="white"/>
<path d="M26 0H106V26H26V0Z" fill="#F7DF1E"/>
<path d="M0 0H26V26H0V0Z" fill="#030106"/>
<path d="M41.832 8.62396V14.576C41.832 14.96 41.768 15.312 41.64 15.632C41.52 15.944 41.34 16.212 41.1 16.436C40.86 16.652 40.568 16.824 40.224 16.952C39.888 17.072 39.504 17.132 39.072 17.132C38.656 17.132 38.288 17.076 37.968 16.964C37.656 16.852 37.384 16.692 37.152 16.484C36.928 16.276 36.744 16.028 36.6 15.74C36.456 15.452 36.356 15.132 36.3 14.78L38.004 14.444C38.14 15.172 38.488 15.536 39.048 15.536C39.312 15.536 39.536 15.452 39.72 15.284C39.912 15.116 40.008 14.852 40.008 14.492V10.088H37.464V8.62396H41.832Z" fill="white"/>
<path d="M48.1871 17C47.8671 17 47.5991 16.9 47.3831 16.7C47.1751 16.5 47.0431 16.232 46.9871 15.896H46.9151C46.8191 16.304 46.6071 16.616 46.2791 16.832C45.9511 17.04 45.5471 17.144 45.0671 17.144C44.4351 17.144 43.9511 16.976 43.6151 16.64C43.2791 16.304 43.1111 15.86 43.1111 15.308C43.1111 14.644 43.3511 14.152 43.8311 13.832C44.3191 13.504 44.9791 13.34 45.8111 13.34H46.8071V12.944C46.8071 12.64 46.7271 12.4 46.5671 12.224C46.4071 12.04 46.1391 11.948 45.7631 11.948C45.4111 11.948 45.1311 12.024 44.9231 12.176C44.7151 12.328 44.5431 12.5 44.4071 12.692L43.3511 11.756C43.6071 11.38 43.9271 11.088 44.3111 10.88C44.7031 10.664 45.2311 10.556 45.8951 10.556C46.7911 10.556 47.4631 10.752 47.9111 11.144C48.3591 11.536 48.5831 12.108 48.5831 12.86V15.62H49.1711V17H48.1871ZM45.7271 15.908C46.0231 15.908 46.2751 15.844 46.4831 15.716C46.6991 15.588 46.8071 15.38 46.8071 15.092V14.348H45.9431C45.2471 14.348 44.8991 14.584 44.8991 15.056V15.236C44.8991 15.468 44.9711 15.64 45.1151 15.752C45.2591 15.856 45.4631 15.908 45.7271 15.908Z" fill="white"/>
<path d="M51.59 17L49.526 10.7H51.278L52.058 13.244L52.646 15.524H52.742L53.33 13.244L54.086 10.7H55.766L53.702 17H51.59Z" fill="white"/>
<path d="M61.2535 17C60.9335 17 60.6655 16.9 60.4495 16.7C60.2415 16.5 60.1095 16.232 60.0535 15.896H59.9815C59.8855 16.304 59.6735 16.616 59.3455 16.832C59.0175 17.04 58.6135 17.144 58.1335 17.144C57.5015 17.144 57.0175 16.976 56.6815 16.64C56.3455 16.304 56.1775 15.86 56.1775 15.308C56.1775 14.644 56.4175 14.152 56.8975 13.832C57.3855 13.504 58.0455 13.34 58.8775 13.34H59.8735V12.944C59.8735 12.64 59.7935 12.4 59.6335 12.224C59.4735 12.04 59.2055 11.948 58.8295 11.948C58.4775 11.948 58.1975 12.024 57.9895 12.176C57.7815 12.328 57.6095 12.5 57.4735 12.692L56.4175 11.756C56.6735 11.38 56.9935 11.088 57.3775 10.88C57.7695 10.664 58.2975 10.556 58.9615 10.556C59.8575 10.556 60.5295 10.752 60.9775 11.144C61.4255 11.536 61.6495 12.108 61.6495 12.86V15.62H62.2375V17H61.2535ZM58.7935 15.908C59.0895 15.908 59.3415 15.844 59.5495 15.716C59.7655 15.588 59.8735 15.38 59.8735 15.092V14.348H59.0095C58.3135 14.348 57.9655 14.584 57.9655 15.056V15.236C57.9655 15.468 58.0375 15.64 58.1815 15.752C58.3255 15.856 58.5295 15.908 58.7935 15.908Z" fill="white"/>
<path d="M65.5656 17.144C64.9576 17.144 64.4456 17.048 64.0296 16.856C63.6136 16.656 63.2416 16.376 62.9136 16.016L63.9576 14.96C64.1816 15.208 64.4296 15.404 64.7016 15.548C64.9736 15.692 65.2816 15.764 65.6256 15.764C65.9776 15.764 66.2216 15.712 66.3576 15.608C66.4936 15.496 66.5616 15.348 66.5616 15.164C66.5616 14.868 66.3496 14.692 65.9256 14.636L65.2416 14.552C63.8256 14.376 63.1176 13.728 63.1176 12.608C63.1176 12.304 63.1736 12.028 63.2856 11.78C63.4056 11.524 63.5696 11.308 63.7776 11.132C63.9936 10.948 64.2496 10.808 64.5456 10.712C64.8496 10.608 65.1896 10.556 65.5656 10.556C65.8936 10.556 66.1816 10.58 66.4296 10.628C66.6856 10.668 66.9096 10.732 67.1016 10.82C67.3016 10.9 67.4816 11.004 67.6416 11.132C67.8096 11.252 67.9736 11.388 68.1336 11.54L67.1136 12.584C66.9136 12.384 66.6856 12.228 66.4296 12.116C66.1816 11.996 65.9256 11.936 65.6616 11.936C65.3576 11.936 65.1416 11.984 65.0136 12.08C64.8856 12.176 64.8216 12.304 64.8216 12.464C64.8216 12.632 64.8656 12.764 64.9536 12.86C65.0496 12.948 65.2256 13.012 65.4816 13.052L66.1896 13.148C67.5736 13.332 68.2656 13.964 68.2656 15.044C68.2656 15.348 68.2016 15.628 68.0736 15.884C67.9456 16.14 67.7616 16.364 67.5216 16.556C67.2896 16.74 67.0056 16.884 66.6696 16.988C66.3416 17.092 65.9736 17.144 65.5656 17.144Z" fill="white"/>
<path d="M72.0204 17.144C71.5484 17.144 71.1284 17.068 70.7604 16.916C70.3924 16.756 70.0844 16.536 69.8364 16.256C69.5884 15.968 69.4004 15.62 69.2724 15.212C69.1444 14.804 69.0804 14.348 69.0804 13.844C69.0804 13.34 69.1444 12.888 69.2724 12.488C69.4004 12.08 69.5884 11.732 69.8364 11.444C70.0844 11.156 70.3924 10.936 70.7604 10.784C71.1284 10.632 71.5484 10.556 72.0204 10.556C72.6604 10.556 73.1924 10.7 73.6164 10.988C74.0484 11.276 74.3564 11.68 74.5404 12.2L73.1004 12.824C73.0444 12.584 72.9284 12.38 72.7524 12.212C72.5764 12.044 72.3324 11.96 72.0204 11.96C71.6604 11.96 71.3884 12.08 71.2044 12.32C71.0204 12.552 70.9284 12.868 70.9284 13.268V14.444C70.9284 14.844 71.0204 15.16 71.2044 15.392C71.3884 15.624 71.6604 15.74 72.0204 15.74C72.3404 15.74 72.5924 15.656 72.7764 15.488C72.9684 15.312 73.1084 15.084 73.1964 14.804L74.5764 15.404C74.3684 16.004 74.0444 16.444 73.6044 16.724C73.1724 17.004 72.6444 17.144 72.0204 17.144Z" fill="white"/>
<path d="M75.6756 17V10.7H77.4516V12.068H77.5116C77.5436 11.892 77.5996 11.724 77.6796 11.564C77.7596 11.396 77.8636 11.248 77.9916 11.12C78.1276 10.992 78.2876 10.892 78.4716 10.82C78.6556 10.74 78.8716 10.7 79.1196 10.7H79.4316V12.356H78.9876C78.4676 12.356 78.0796 12.424 77.8236 12.56C77.5756 12.696 77.4516 12.948 77.4516 13.316V17H75.6756Z" fill="white"/>
<path d="M81.4152 10.028C81.0552 10.028 80.7912 9.94796 80.6232 9.78796C80.4632 9.61996 80.3832 9.40796 80.3832 9.15196V8.88796C80.3832 8.63196 80.4632 8.42396 80.6232 8.26396C80.7912 8.09596 81.0552 8.01196 81.4152 8.01196C81.7752 8.01196 82.0352 8.09596 82.1952 8.26396C82.3632 8.42396 82.4472 8.63196 82.4472 8.88796V9.15196C82.4472 9.40796 82.3632 9.61996 82.1952 9.78796C82.0352 9.94796 81.7752 10.028 81.4152 10.028ZM80.5272 10.7H82.3032V17H80.5272V10.7Z" fill="white"/>
<path d="M83.9608 10.7H85.7368V11.756H85.7968C85.8848 11.404 86.0848 11.116 86.3968 10.892C86.7168 10.668 87.0808 10.556 87.4888 10.556C88.2888 10.556 88.8928 10.836 89.3008 11.396C89.7088 11.956 89.9128 12.772 89.9128 13.844C89.9128 14.916 89.7088 15.736 89.3008 16.304C88.8928 16.864 88.2888 17.144 87.4888 17.144C87.2808 17.144 87.0848 17.112 86.9008 17.048C86.7168 16.992 86.5488 16.912 86.3968 16.808C86.2528 16.696 86.1288 16.568 86.0248 16.424C85.9208 16.272 85.8448 16.112 85.7968 15.944H85.7368V19.4H83.9608V10.7ZM86.9008 15.704C87.2368 15.704 87.5128 15.588 87.7288 15.356C87.9528 15.116 88.0648 14.796 88.0648 14.396V13.304C88.0648 12.904 87.9528 12.588 87.7288 12.356C87.5128 12.116 87.2368 11.996 86.9008 11.996C86.5648 11.996 86.2848 12.08 86.0608 12.248C85.8448 12.408 85.7368 12.632 85.7368 12.92V14.78C85.7368 15.068 85.8448 15.296 86.0608 15.464C86.2848 15.624 86.5648 15.704 86.9008 15.704Z" fill="white"/>
<path d="M93.3993 17C92.7833 17 92.3153 16.844 91.9953 16.532C91.6833 16.22 91.5273 15.764 91.5273 15.164V12.08H90.6393V10.7H91.0833C91.3233 10.7 91.4873 10.644 91.5753 10.532C91.6633 10.412 91.7073 10.244 91.7073 10.028V8.99596H93.3033V10.7H94.5513V12.08H93.3033V15.62H94.4553V17H93.3993Z" fill="white"/>
<path fill-rule="evenodd" clip-rule="evenodd" d="M17.2624 19.7457C15.8664 19.7457 14.964 19.0802 14.524 18.2098L15.748 17.5008C16.0704 18.0272 16.4888 18.4137 17.2304 18.4137C17.8528 18.4137 18.2504 18.1023 18.2504 17.6727C18.2504 17.0263 17.388 16.7737 16.7792 16.5129C15.6944 16.0513 14.9744 15.4713 14.9744 14.2465C14.9744 13.1193 15.8336 12.2602 17.1768 12.2602C18.132 12.2602 18.82 12.5929 19.3136 13.4625L18.1432 14.2145C17.8856 13.7529 17.6064 13.5703 17.1768 13.5703C16.736 13.5703 16.4568 13.8497 16.4568 14.2145C16.4568 14.6657 16.736 14.8481 17.3808 15.1273C18.732 15.7065 19.7544 16.1616 19.7544 17.6512C19.7544 19.0048 18.6912 19.7457 17.2624 19.7457ZM13.8 17.4793C13.8 19.0369 12.8408 19.8602 11.5088 19.8602C10.3056 19.8602 9.5848 19.4 9.2304 18.6H9.21841H9.21279H9.20959L10.4328 17.7449C10.6688 18.1633 10.8816 18.4602 11.3968 18.4602C11.8912 18.4602 12.2 18.2098 12.2 17.4586V12.2H13.8V17.4793ZM5 21H21V5H5V21Z" fill="#F7DF1E"/>
</svg>
