<svg xmlns="http://www.w3.org/2000/svg" width="106" height="26" fill="none"><path fill="#fff" d="M0 0h106v26H0z"/><path fill="#FFC30B" d="M26 0h80v26H26V0Z"/><path fill="#030106" d="M0 0h26v26H0V0Z"/><path fill="#fff" d="M41.832 8.624v5.952c0 .384-.064.736-.192 1.056-.12.312-.3.58-.54.804a2.7 2.7 0 0 1-.876.516c-.336.12-.72.18-1.152.18-.416 0-.784-.056-1.104-.168a2.445 2.445 0 0 1-.816-.48 2.577 2.577 0 0 1-.552-.744 3.288 3.288 0 0 1-.3-.96l1.704-.336c.136.728.484 1.092 1.044 1.092a.96.96 0 0 0 .672-.252c.192-.168.288-.432.288-.792v-4.404h-2.544V8.624h4.368ZM48.187 17c-.32 0-.588-.1-.804-.3-.208-.2-.34-.468-.396-.804h-.072a1.48 1.48 0 0 1-.636.936c-.328.208-.732.312-1.212.312-.632 0-1.116-.168-1.452-.504-.336-.336-.504-.78-.504-1.332 0-.664.24-1.156.72-1.476.488-.328 1.148-.492 1.98-.492h.996v-.396c0-.304-.08-.544-.24-.72-.16-.184-.428-.276-.804-.276-.352 0-.632.076-.84.228-.208.152-.38.324-.516.516l-1.056-.936c.256-.376.576-.668.96-.876.392-.216.92-.324 1.584-.324.896 0 1.568.196 2.016.588.448.392.672.964.672 1.716v2.76h.588V17h-.984Zm-2.46-1.092c.296 0 .548-.064.756-.192.216-.128.324-.336.324-.624v-.744h-.864c-.696 0-1.044.236-1.044.708v.18c0 .232.072.404.216.516.144.104.348.156.612.156ZM51.59 17l-2.064-6.3h1.752l.78 2.544.588 2.28h.096l.588-2.28.756-2.544h1.68L53.702 17H51.59ZM61.254 17c-.32 0-.588-.1-.804-.3-.209-.2-.34-.468-.397-.804h-.072a1.48 1.48 0 0 1-.636.936c-.328.208-.731.312-1.212.312-.632 0-1.116-.168-1.452-.504-.335-.336-.503-.78-.503-1.332 0-.664.24-1.156.72-1.476.487-.328 1.147-.492 1.98-.492h.995v-.396c0-.304-.08-.544-.24-.72-.16-.184-.428-.276-.803-.276-.352 0-.633.076-.84.228-.209.152-.38.324-.517.516l-1.056-.936c.256-.376.576-.668.96-.876.392-.216.92-.324 1.584-.324.897 0 1.569.196 2.017.588.447.392.672.964.672 1.716v2.76h.587V17h-.983Zm-2.46-1.092c.296 0 .548-.064.756-.192.216-.128.324-.336.324-.624v-.744h-.864c-.697 0-1.044.236-1.044.708v.18c0 .232.072.404.215.516.145.104.349.156.613.156ZM65.566 17.144c-.608 0-1.12-.096-1.536-.288-.416-.2-.788-.48-1.116-.84l1.044-1.056c.224.248.472.444.744.588.272.144.58.216.924.216.352 0 .596-.052.732-.156a.547.547 0 0 0 .204-.444c0-.296-.212-.472-.636-.528l-.684-.084c-1.416-.176-2.124-.824-2.124-1.944 0-.304.056-.58.168-.828.12-.256.284-.472.492-.648a2.23 2.23 0 0 1 .768-.42 3.138 3.138 0 0 1 1.02-.156c.328 0 .616.024.864.072.256.04.48.104.672.192.2.08.38.184.54.312.168.12.332.256.492.408l-1.02 1.044c-.2-.2-.428-.356-.684-.468a1.744 1.744 0 0 0-.768-.18c-.305 0-.52.048-.648.144a.456.456 0 0 0-.192.384c0 .168.044.3.132.396.096.088.272.152.528.192l.708.096c1.384.184 2.076.816 2.076 1.896 0 .304-.064.584-.192.84s-.312.48-.552.672a2.587 2.587 0 0 1-.852.432 3.644 3.644 0 0 1-1.104.156ZM72.02 17.144c-.472 0-.892-.076-1.26-.228a2.598 2.598 0 0 1-.924-.66 2.914 2.914 0 0 1-.564-1.044 4.559 4.559 0 0 1-.192-1.368c0-.504.064-.956.192-1.356.128-.408.316-.756.564-1.044.248-.288.556-.508.924-.66a3.277 3.277 0 0 1 1.26-.228c.64 0 1.172.144 1.596.432.432.288.74.692.924 1.212l-1.44.624a1.207 1.207 0 0 0-.348-.612c-.176-.168-.42-.252-.732-.252-.36 0-.632.12-.816.36-.184.232-.276.548-.276.948v1.176c0 .4.092.716.276.948.184.232.456.348.816.348.32 0 .572-.084.756-.252.192-.176.332-.404.42-.684l1.38.6c-.208.6-.532 1.04-.972 1.32-.432.28-.96.42-1.584.42ZM75.676 17v-6.3h1.776v1.368h.06c.032-.176.088-.344.168-.504.08-.168.184-.316.312-.444.136-.128.296-.228.48-.3.184-.08.4-.12.648-.12h.312v1.656h-.444c-.52 0-.908.068-1.164.204-.248.136-.372.388-.372.756V17h-1.776ZM81.415 10.028c-.36 0-.624-.08-.792-.24a.885.885 0 0 1-.24-.636v-.264c0-.256.08-.464.24-.624.168-.168.432-.252.792-.252.36 0 .62.084.78.252.168.16.252.368.252.624v.264a.862.862 0 0 1-.252.636c-.16.16-.42.24-.78.24Zm-.888.672h1.776V17h-1.776v-6.3ZM83.96 10.7h1.777v1.056h.06c.088-.352.288-.64.6-.864.32-.224.684-.336 1.092-.336.8 0 1.404.28 1.812.84.408.56.612 1.376.612 2.448s-.204 1.892-.612 2.46c-.408.56-1.012.84-1.812.84-.208 0-.404-.032-.588-.096a1.83 1.83 0 0 1-.504-.24 1.878 1.878 0 0 1-.372-.384 1.649 1.649 0 0 1-.228-.48h-.06V19.4H83.96v-8.7Zm2.94 5.004c.337 0 .613-.116.829-.348.224-.24.336-.56.336-.96v-1.092c0-.4-.112-.716-.336-.948a1.064 1.064 0 0 0-.828-.36c-.336 0-.616.084-.84.252a.788.788 0 0 0-.324.672v1.86a.82.82 0 0 0 .324.684c.224.16.504.24.84.24ZM93.4 17c-.617 0-1.085-.156-1.405-.468-.312-.312-.468-.768-.468-1.368V12.08h-.888V10.7h.444c.24 0 .404-.056.492-.168.088-.12.132-.288.132-.504V8.996h1.596V10.7h1.248v1.38h-1.248v3.54h1.152V17H93.4Z"/><path fill="#FFC30B" fill-rule="evenodd" d="M17.262 19.746c-1.396 0-2.298-.666-2.738-1.536l1.224-.71c.322.527.74.914 1.482.914.623 0 1.02-.312 1.02-.741 0-.647-.862-.9-1.47-1.16-1.086-.462-1.806-1.042-1.806-2.267 0-1.127.86-1.986 2.203-1.986.955 0 1.643.333 2.137 1.203l-1.17.752c-.258-.462-.538-.645-.967-.645-.441 0-.72.28-.72.644 0 .452.279.634.924.913 1.351.58 2.373 1.035 2.373 2.524 0 1.354-1.063 2.095-2.492 2.095ZM13.8 17.479c0 1.558-.96 2.381-2.291 2.381-1.203 0-1.924-.46-2.279-1.26h-.02l1.223-.855c.236.418.449.715.964.715.494 0 .803-.25.803-1.001V12.2h1.6v5.28ZM5 21h16V5H5v16Z" clip-rule="evenodd"/></svg>