<svg xmlns="http://www.w3.org/2000/svg" width="106" height="26" fill="none"><path fill="#fff" d="M0 0h106v26H0z"/><path fill="#03C04A" d="M26 0h80v26H26V0Z"/><path fill="#030106" d="M0 0h26v26H0V0Z"/><path fill="#fff" d="M50.924 17V8.624h1.824v6.756h3.192V17h-5.016ZM58.08 10.028c-.36 0-.625-.08-.793-.24a.885.885 0 0 1-.24-.636v-.264c0-.256.08-.464.24-.624.168-.168.432-.252.792-.252.36 0 .62.084.78.252.168.16.252.368.252.624v.264a.862.862 0 0 1-.252.636c-.16.16-.42.24-.78.24Zm-.889.672h1.776V17h-1.776v-6.3ZM60.625 17v-6.3H62.4v1.068h.072c.112-.328.308-.612.588-.852.28-.24.668-.36 1.164-.36.648 0 1.136.216 1.464.648.336.432.504 1.048.504 1.848V17h-1.776v-3.804c0-.408-.064-.708-.192-.9-.128-.2-.356-.3-.684-.3-.144 0-.284.02-.42.06-.136.032-.26.088-.372.168a.918.918 0 0 0-.252.3.785.785 0 0 0-.096.396V17h-1.776ZM71.493 15.944h-.06c-.056.16-.132.312-.228.456a1.433 1.433 0 0 1-.348.384c-.144.112-.316.2-.516.264a2.127 2.127 0 0 1-.672.096c-.648 0-1.14-.212-1.476-.636-.328-.432-.492-1.048-.492-1.848V10.7h1.776v3.804c0 .384.068.68.204.888.136.208.368.312.696.312.136 0 .272-.02.408-.06.136-.04.256-.096.36-.168a.963.963 0 0 0 .252-.288.785.785 0 0 0 .096-.396V10.7h1.776V17h-1.776v-1.056ZM74.31 17l2.076-3.204-2.052-3.096h2.016l1.176 1.98h.048l1.14-1.98h1.872l-2.088 3.156 2.1 3.144h-2.016l-1.212-2.052h-.048L76.158 17H74.31Z"/><path fill="#03C04A" d="M15.107 10.07c-.335.224-1.396.799-1.556.95a.655.655 0 0 1-.91 0c-.16-.127-1.222-.734-1.557-.95-.335-.215-.359-.558.064-.734a4.918 4.918 0 0 1 3.92 0c.39.168.407.48 0 .719m5.763 5.81a15.237 15.237 0 0 0-3.025-4.477 3.44 3.44 0 0 1-.847-1.5c-.08-.264-.135-.536-.191-.8a9.033 9.033 0 0 0-.559-2.114 3.24 3.24 0 0 0-3.065-1.972A3.353 3.353 0 0 0 9.99 6.918c-.165.34-.289.7-.368 1.07-.135.606-.255 1.237-.399 1.851-.124.525-.402 1-.798 1.365a15.588 15.588 0 0 0-3.097 4.27c-.117.226-.216.461-.296.703-.151.526.232.894.799.798.35-.072.702-.144 1.037-.248.336-.103.455 0 .535.28a5.371 5.371 0 0 0 3.385 3.592c3.289 1.245 7.128-.527 7.983-3.656.055-.216.135-.295.375-.216.367.112.742.192 1.117.28a.573.573 0 0 0 .735-.511 1.149 1.149 0 0 0-.128-.583"/></svg>