<svg width="106" height="26" viewBox="0 0 106 26" fill="none" xmlns="http://www.w3.org/2000/svg">
<rect width="106" height="26" fill="white"/>
<path d="M26 0H106V26H26V0Z" fill="#00D02E"/>
<path d="M0 0H26V26H0V0Z" fill="#030106"/>
<path d="M50.924 17V8.62396H52.748V15.38H55.94V17H50.924Z" fill="white"/>
<path d="M58.0793 10.028C57.7193 10.028 57.4553 9.94796 57.2873 9.78796C57.1273 9.61996 57.0473 9.40796 57.0473 9.15196V8.88796C57.0473 8.63196 57.1273 8.42396 57.2873 8.26396C57.4553 8.09596 57.7193 8.01196 58.0793 8.01196C58.4393 8.01196 58.6993 8.09596 58.8593 8.26396C59.0273 8.42396 59.1113 8.63196 59.1113 8.88796V9.15196C59.1113 9.40796 59.0273 9.61996 58.8593 9.78796C58.6993 9.94796 58.4393 10.028 58.0793 10.028ZM57.1913 10.7H58.9673V17H57.1913V10.7Z" fill="white"/>
<path d="M60.6249 17V10.7H62.4009V11.768H62.4729C62.5849 11.44 62.7809 11.156 63.0609 10.916C63.3409 10.676 63.7289 10.556 64.2249 10.556C64.8729 10.556 65.3609 10.772 65.6889 11.204C66.0249 11.636 66.1929 12.252 66.1929 13.052V17H64.4169V13.196C64.4169 12.788 64.3529 12.488 64.2249 12.296C64.0969 12.096 63.8689 11.996 63.5409 11.996C63.3969 11.996 63.2569 12.016 63.1209 12.056C62.9849 12.088 62.8609 12.144 62.7489 12.224C62.6449 12.304 62.5609 12.404 62.4969 12.524C62.4329 12.636 62.4009 12.768 62.4009 12.92V17H60.6249Z" fill="white"/>
<path d="M71.4933 15.944H71.4333C71.3773 16.104 71.3013 16.256 71.2053 16.4C71.1173 16.544 71.0013 16.672 70.8573 16.784C70.7133 16.896 70.5413 16.984 70.3413 17.048C70.1493 17.112 69.9253 17.144 69.6693 17.144C69.0213 17.144 68.5293 16.932 68.1933 16.508C67.8653 16.076 67.7013 15.46 67.7013 14.66V10.7H69.4773V14.504C69.4773 14.888 69.5453 15.184 69.6813 15.392C69.8173 15.6 70.0493 15.704 70.3773 15.704C70.5133 15.704 70.6493 15.684 70.7853 15.644C70.9213 15.604 71.0413 15.548 71.1453 15.476C71.2493 15.396 71.3333 15.3 71.3973 15.188C71.4613 15.076 71.4933 14.944 71.4933 14.792V10.7H73.2693V17H71.4933V15.944Z" fill="white"/>
<path d="M74.3098 17L76.3858 13.796L74.3338 10.7H76.3498L77.5258 12.68H77.5738L78.7138 10.7H80.5858L78.4978 13.856L80.5978 17H78.5818L77.3698 14.948H77.3218L76.1578 17H74.3098Z" fill="white"/>
<path d="M15.1075 10.0707C14.7722 10.2942 13.7105 10.8688 13.5509 11.0205C13.4288 11.1385 13.2657 11.2045 13.0959 11.2045C12.9261 11.2045 12.7629 11.1385 12.6409 11.0205C12.4812 10.8928 11.4195 10.2862 11.0842 10.0707C10.749 9.85516 10.725 9.51194 11.1481 9.33635C11.7665 9.06765 12.4336 8.929 13.1078 8.929C13.7821 8.929 14.4492 9.06765 15.0676 9.33635C15.4587 9.50396 15.4747 9.81525 15.0676 10.0547M20.8311 15.8654C20.0975 14.2045 19.0729 12.6881 17.8057 11.3877C17.4009 10.9673 17.1097 10.4509 16.9595 9.88709C16.8797 9.62369 16.8238 9.35231 16.7679 9.08891C16.668 8.36383 16.4804 7.65357 16.2091 6.97375C15.9548 6.37569 15.5265 5.8679 14.9799 5.51633C14.4332 5.16476 13.7935 4.98565 13.1438 5.00225C12.4884 4.97822 11.8404 5.14689 11.2799 5.48738C10.7195 5.82786 10.2712 6.32522 9.9906 6.91787C9.82567 7.25835 9.70238 7.61746 9.62339 7.98743C9.48769 8.59404 9.36795 9.2246 9.22426 9.8392C9.10047 10.3637 8.82243 10.839 8.42599 11.2041C7.15844 12.4412 6.11101 13.8853 5.3287 15.4743C5.21201 15.7004 5.11326 15.9352 5.03334 16.1767C4.88167 16.7035 5.26484 17.0707 5.83161 16.9749C6.18285 16.9031 6.53409 16.8312 6.86936 16.7275C7.20463 16.6237 7.32437 16.7275 7.4042 17.0068C7.6402 17.8324 8.07069 18.5894 8.6596 19.2143C9.24851 19.8393 9.97866 20.314 10.7889 20.5986C14.0777 21.8438 17.9174 20.0718 18.7716 16.943C18.8274 16.7275 18.9073 16.6476 19.1468 16.7275C19.514 16.8392 19.8891 16.919 20.2643 17.0068C20.3467 17.0309 20.4334 17.0362 20.5181 17.0223C20.6027 17.0085 20.6832 16.9759 20.7537 16.9269C20.8241 16.8779 20.8827 16.8138 20.9251 16.7392C20.9675 16.6647 20.9927 16.5815 20.9987 16.496C21.0082 16.2939 20.9641 16.0929 20.871 15.9133" fill="#00D02E"/>
</svg>
