<svg xmlns="http://www.w3.org/2000/svg" width="106" height="26" fill="none"><path fill="#fff" d="M0 0h106v26H0z"/><path fill="#FD5CA8" d="M26 0h80v26H26V0Z"/><path fill="#030106" d="M0 0h26v26H0V0Z"/><path fill="#fff" d="M43.188 11.504h-.036l-.612 1.224-1.632 2.964-1.596-2.952-.636-1.32h-.036V17h-1.716V8.624h1.932l2.052 3.924h.024l2.028-3.924h1.944V17h-1.716v-5.496ZM51.316 17c-.32 0-.588-.1-.804-.3-.208-.2-.34-.468-.396-.804h-.072a1.48 1.48 0 0 1-.636.936c-.328.208-.732.312-1.212.312-.632 0-1.116-.168-1.452-.504-.336-.336-.504-.78-.504-1.332 0-.664.24-1.156.72-1.476.488-.328 1.148-.492 1.98-.492h.996v-.396c0-.304-.08-.544-.24-.72-.16-.184-.428-.276-.804-.276-.352 0-.632.076-.84.228-.208.152-.38.324-.516.516l-1.056-.936c.256-.376.576-.668.96-.876.392-.216.92-.324 1.584-.324.896 0 1.568.196 2.016.588.448.392.672.964.672 1.716v2.76h.588V17h-.984Zm-2.46-1.092c.296 0 .548-.064.756-.192.216-.128.324-.336.324-.624v-.744h-.864c-.696 0-1.044.236-1.044.708v.18c0 .232.072.404.216.516.144.104.348.156.612.156ZM53.492 17v-6.3h1.776v1.368h.06c.032-.176.088-.344.168-.504.08-.168.184-.316.312-.444.136-.128.296-.228.48-.3.184-.08.4-.12.648-.12h.312v1.656h-.444c-.52 0-.908.068-1.164.204-.248.136-.372.388-.372.756V17h-1.776ZM58.344 8.12h1.776v5.244h.072l.78-1.164 1.26-1.5H64.2l-2.1 2.412L64.44 17h-2.112l-1.416-2.664-.792.888V17h-1.776V8.12ZM68.899 15.944h-.06a1.649 1.649 0 0 1-.228.48 1.634 1.634 0 0 1-.888.624 1.74 1.74 0 0 1-.576.096c-.8 0-1.404-.28-1.812-.84-.408-.568-.612-1.388-.612-2.46s.204-1.888.612-2.448c.408-.56 1.012-.84 1.812-.84.408 0 .768.112 1.08.336.32.224.524.512.612.864h.06V8.12h1.776V17h-1.776v-1.056Zm-1.164-.24c.336 0 .612-.08.828-.24a.81.81 0 0 0 .336-.684v-1.86a.779.779 0 0 0-.336-.672c-.216-.168-.492-.252-.828-.252-.336 0-.616.12-.84.36-.216.232-.324.548-.324.948v1.092c0 .4.108.72.324.96.224.232.504.348.84.348ZM74.892 17.144c-.464 0-.88-.076-1.248-.228a2.544 2.544 0 0 1-.924-.66 3.063 3.063 0 0 1-.576-1.044 4.31 4.31 0 0 1-.204-1.368c0-.504.068-.96.204-1.368.136-.408.328-.752.576-1.032.256-.288.564-.508.924-.66a3.243 3.243 0 0 1 1.248-.228c.464 0 .876.076 1.236.228.368.152.676.372.924.66.256.28.452.624.588 1.032.136.408.204.864.204 1.368 0 .504-.068.96-.204 1.368a2.956 2.956 0 0 1-.588 1.044 2.416 2.416 0 0 1-.924.66c-.36.152-.772.228-1.236.228Zm0-1.404c.352 0 .624-.108.816-.324.192-.216.288-.524.288-.924v-1.284c0-.4-.096-.708-.288-.924-.192-.216-.464-.324-.816-.324-.352 0-.624.108-.816.324-.192.216-.288.524-.288.924v1.284c0 .4.096.708.288.924.192.216.464.324.816.324ZM78.392 10.7h1.716l.612 2.544.432 1.92h.048l.504-1.92.72-2.544h1.62l.732 2.544.516 1.92h.048l.432-1.92.612-2.544h1.644l-1.74 6.3h-1.86l-.768-2.664-.444-1.632h-.036l-.432 1.632L81.98 17h-1.824l-1.764-6.3ZM89.082 17v-6.3h1.776v1.068h.072c.112-.328.308-.612.588-.852.28-.24.668-.36 1.164-.36.648 0 1.136.216 1.464.648.336.432.504 1.048.504 1.848V17h-1.776v-3.804c0-.408-.064-.708-.192-.9-.128-.2-.356-.3-.684-.3-.144 0-.284.02-.42.06-.136.032-.26.088-.372.168a.918.918 0 0 0-.252.3.785.785 0 0 0-.096.396V17h-1.776Z"/><path fill="#FD5CA8" d="M5.8 6h14.4c.212 0 .416.082.566.228.15.146.234.344.234.55v12.444a.767.767 0 0 1-.234.55.812.812 0 0 1-.566.228H5.8a.812.812 0 0 1-.566-.228.767.767 0 0 1-.234-.55V6.778c0-.206.084-.404.234-.55A.812.812 0 0 1 5.8 6ZM9 15.722v-3.11l1.6 1.555 1.6-1.556v3.111h1.6v-5.444h-1.6l-1.6 1.555L9 10.278H7.4v5.444H9Zm8.8-2.333v-3.111h-1.6v3.11h-1.6l2.4 2.334 2.4-2.333h-1.6Z"/></svg>