<svg width="106" height="26" viewBox="0 0 106 26" fill="none" xmlns="http://www.w3.org/2000/svg">
<rect width="106" height="26" fill="white"/>
<path d="M26 0H106V26H26V0Z" fill="#D91EF7"/>
<path d="M0 0H26V26H0V0Z" fill="#030106"/>
<path d="M43.188 11.504H43.152L42.54 12.728L40.908 15.692L39.312 12.74L38.676 11.42H38.64V17H36.924V8.624H38.856L40.908 12.548H40.932L42.96 8.624H44.904V17H43.188V11.504Z" fill="white"/>
<path d="M51.316 17C50.996 17 50.728 16.9 50.512 16.7C50.304 16.5 50.172 16.232 50.116 15.896H50.044C49.948 16.304 49.736 16.616 49.408 16.832C49.08 17.04 48.676 17.144 48.196 17.144C47.564 17.144 47.08 16.976 46.744 16.64C46.408 16.304 46.24 15.86 46.24 15.308C46.24 14.644 46.48 14.152 46.96 13.832C47.448 13.504 48.108 13.34 48.94 13.34H49.936V12.944C49.936 12.64 49.856 12.4 49.696 12.224C49.536 12.04 49.268 11.948 48.892 11.948C48.54 11.948 48.26 12.024 48.052 12.176C47.844 12.328 47.672 12.5 47.536 12.692L46.48 11.756C46.736 11.38 47.056 11.088 47.44 10.88C47.832 10.664 48.36 10.556 49.024 10.556C49.92 10.556 50.592 10.752 51.04 11.144C51.488 11.536 51.712 12.108 51.712 12.86V15.62H52.3V17H51.316ZM48.856 15.908C49.152 15.908 49.404 15.844 49.612 15.716C49.828 15.588 49.936 15.38 49.936 15.092V14.348H49.072C48.376 14.348 48.028 14.584 48.028 15.056V15.236C48.028 15.468 48.1 15.64 48.244 15.752C48.388 15.856 48.592 15.908 48.856 15.908Z" fill="white"/>
<path d="M53.4921 17V10.7H55.2681V12.068H55.3281C55.3601 11.892 55.4161 11.724 55.4961 11.564C55.5761 11.396 55.6801 11.248 55.8081 11.12C55.9441 10.992 56.1041 10.892 56.2881 10.82C56.4721 10.74 56.6881 10.7 56.9361 10.7H57.2481V12.356H56.8041C56.2841 12.356 55.8961 12.424 55.6401 12.56C55.3921 12.696 55.2681 12.948 55.2681 13.316V17H53.4921Z" fill="white"/>
<path d="M58.3436 8.12H60.1196V13.364H60.1916L60.9716 12.2L62.2316 10.7H64.1996L62.0996 13.112L64.4396 17H62.3276L60.9116 14.336L60.1196 15.224V17H58.3436V8.12Z" fill="white"/>
<path d="M68.899 15.944H68.839C68.791 16.112 68.715 16.272 68.611 16.424C68.507 16.568 68.379 16.696 68.227 16.808C68.083 16.912 67.915 16.992 67.723 17.048C67.539 17.112 67.347 17.144 67.147 17.144C66.347 17.144 65.743 16.864 65.335 16.304C64.927 15.736 64.723 14.916 64.723 13.844C64.723 12.772 64.927 11.956 65.335 11.396C65.743 10.836 66.347 10.556 67.147 10.556C67.555 10.556 67.915 10.668 68.227 10.892C68.547 11.116 68.751 11.404 68.839 11.756H68.899V8.12H70.675V17H68.899V15.944ZM67.735 15.704C68.071 15.704 68.347 15.624 68.563 15.464C68.787 15.296 68.899 15.068 68.899 14.78V12.92C68.899 12.632 68.787 12.408 68.563 12.248C68.347 12.08 68.071 11.996 67.735 11.996C67.399 11.996 67.119 12.116 66.895 12.356C66.679 12.588 66.571 12.904 66.571 13.304V14.396C66.571 14.796 66.679 15.116 66.895 15.356C67.119 15.588 67.399 15.704 67.735 15.704Z" fill="white"/>
<path d="M74.8918 17.144C74.4278 17.144 74.0118 17.068 73.6438 16.916C73.2838 16.764 72.9758 16.544 72.7198 16.256C72.4718 15.968 72.2798 15.62 72.1438 15.212C72.0078 14.804 71.9398 14.348 71.9398 13.844C71.9398 13.34 72.0078 12.884 72.1438 12.476C72.2798 12.068 72.4718 11.724 72.7198 11.444C72.9758 11.156 73.2838 10.936 73.6438 10.784C74.0118 10.632 74.4278 10.556 74.8918 10.556C75.3558 10.556 75.7678 10.632 76.1278 10.784C76.4958 10.936 76.8038 11.156 77.0518 11.444C77.3078 11.724 77.5038 12.068 77.6398 12.476C77.7758 12.884 77.8438 13.34 77.8438 13.844C77.8438 14.348 77.7758 14.804 77.6398 15.212C77.5038 15.62 77.3078 15.968 77.0518 16.256C76.8038 16.544 76.4958 16.764 76.1278 16.916C75.7678 17.068 75.3558 17.144 74.8918 17.144ZM74.8918 15.74C75.2438 15.74 75.5158 15.632 75.7078 15.416C75.8998 15.2 75.9958 14.892 75.9958 14.492V13.208C75.9958 12.808 75.8998 12.5 75.7078 12.284C75.5158 12.068 75.2438 11.96 74.8918 11.96C74.5398 11.96 74.2678 12.068 74.0758 12.284C73.8838 12.5 73.7878 12.808 73.7878 13.208V14.492C73.7878 14.892 73.8838 15.2 74.0758 15.416C74.2678 15.632 74.5398 15.74 74.8918 15.74Z" fill="white"/>
<path d="M78.3921 10.7H80.1081L80.7201 13.244L81.1521 15.164H81.2001L81.7041 13.244L82.4241 10.7H84.0441L84.7761 13.244L85.2921 15.164H85.3401L85.7721 13.244L86.3841 10.7H88.0281L86.2881 17H84.4281L83.6601 14.336L83.2161 12.704H83.1801L82.7481 14.336L81.9801 17H80.1561L78.3921 10.7Z" fill="white"/>
<path d="M89.0819 17V10.7H90.8579V11.768H90.9299C91.0419 11.44 91.2379 11.156 91.5179 10.916C91.7979 10.676 92.1859 10.556 92.6819 10.556C93.3299 10.556 93.8179 10.772 94.1459 11.204C94.4819 11.636 94.6499 12.252 94.6499 13.052V17H92.8739V13.196C92.8739 12.788 92.8099 12.488 92.6819 12.296C92.5539 12.096 92.3259 11.996 91.9979 11.996C91.8539 11.996 91.7139 12.016 91.5779 12.056C91.4419 12.088 91.3179 12.144 91.2059 12.224C91.1019 12.304 91.0179 12.404 90.9539 12.524C90.8899 12.636 90.8579 12.768 90.8579 12.92V17H89.0819Z" fill="white"/>
<path d="M5.8 6H20.2C20.4122 6 20.6157 6.08194 20.7657 6.22781C20.9157 6.37367 21 6.5715 21 6.77778V19.2222C21 19.4285 20.9157 19.6263 20.7657 19.7722C20.6157 19.9181 20.4122 20 20.2 20H5.8C5.58783 20 5.38434 19.9181 5.23431 19.7722C5.08429 19.6263 5 19.4285 5 19.2222V6.77778C5 6.5715 5.08429 6.37367 5.23431 6.22781C5.38434 6.08194 5.58783 6 5.8 6ZM9 15.7222V12.6111L10.6 14.1667L12.2 12.6111V15.7222H13.8V10.2778H12.2L10.6 11.8333L9 10.2778H7.4V15.7222H9ZM17.8 13.3889V10.2778H16.2V13.3889H14.6L17 15.7222L19.4 13.3889H17.8Z" fill="#D91EF7"/>
</svg>
